# xmcd CD database file generated by Grip 3.0.1
# 
# Track frame offsets:
#       150
#       22240
#       38930
#       55555
#       69902
#       89922
#       100962
#       117052
#       131220
#       146870
# 
# Disc length: 2183 seconds
# 
# Revision: 0
# Processed by: cddbd v1.4PL0 Copyright (c) Steve Scherf et al.
# Submitted via: Grip 3.0.1
# 
DISCID=9408850a
DTITLE=Toby Keith - Boomtown
DYEAR=1994
DGENRE=Country
TTITLE0=Who's That Man
TTITLE1=Big Ol' Truck
TTITLE2=Victoria's Secret
TTITLE3=No Honor Among Thieves
TTITLE4=Upstairs Downtown
TTITLE5=You Ain't Much Fun
TTITLE6=In Other Words
TTITLE7=Woman Behind The Man
TTITLE8=Life Was A Play (The World A Stage)
TTITLE9=Boomtown
EXTD=
EXTT0=
EXTT1=
EXTT2=
EXTT3=
EXTT4=
EXTT5=
EXTT6=
EXTT7=
EXTT8=
EXTT9=
PLAYORDER=
